<svg width="651" height="558" viewBox="0 0 651 558" fill="none" xmlns="http://www.w3.org/2000/svg">
<path d="M95.3365 511.062C222.444 573.646 428.556 573.646 555.664 511.062C682.771 448.478 682.786 347.015 555.664 284.431C428.541 221.847 222.444 221.847 95.3365 284.431C-31.7713 347.015 -31.7864 448.478 95.3365 511.062Z" fill="#F5F5F5"/>
<path d="M424.837 495.234C463.168 495.234 494.241 481.278 494.241 464.063C494.241 446.848 463.168 432.892 424.837 432.892C386.506 432.892 355.433 446.848 355.433 464.063C355.433 481.278 386.506 495.234 424.837 495.234Z" fill="#EBEBEB"/>
<path d="M547.787 424.145C577.36 424.145 601.333 413.379 601.333 400.097C601.333 386.816 577.36 376.05 547.787 376.05C518.215 376.05 494.241 386.816 494.241 400.097C494.241 413.379 518.215 424.145 547.787 424.145Z" fill="#EBEBEB"/>
<path d="M166.147 393.359C163.123 378.315 152.057 356.874 138.557 344.921C125.571 333.439 106.297 329.435 98.617 334.735C90.9373 340.035 95.9714 351.489 110.877 365.45C127.703 381.192 160.009 424.872 166.147 449.618V393.359Z" fill="#407BFF"/>
<g opacity="0.2">
<path d="M166.147 393.359C163.123 378.315 152.057 356.874 138.557 344.921C125.571 333.439 106.297 329.435 98.617 334.735C90.9373 340.035 95.9714 351.489 110.877 365.45C127.703 381.192 160.009 424.872 166.147 449.618V393.359Z" fill="black"/>
</g>
<path d="M166.147 429.558C165.957 429.556 165.776 429.488 165.636 429.367C165.497 429.246 165.409 429.081 165.391 428.903C161.581 391.008 133.463 348.411 106.433 339.536C106.244 339.471 106.089 339.34 106.002 339.17C105.914 338.999 105.901 338.804 105.964 338.624C106.033 338.446 106.172 338.301 106.353 338.218C106.533 338.136 106.741 338.123 106.932 338.182C134.959 347.371 163.002 389.711 166.933 428.775C166.95 428.963 166.888 429.15 166.761 429.297C166.634 429.443 166.452 429.537 166.253 429.558H166.147Z" fill="white"/>
<path d="M166.147 467.81C166.147 467.81 160.916 471.742 143.47 470.204C126.025 468.665 117.03 456.912 117.03 451.869C117.03 446.825 133.07 445.956 136.547 433.448C133.01 437.02 128.305 439.373 123.183 440.13C114.112 441.739 106.826 439.004 104.755 423.433C109.225 424.049 113.786 423.693 118.088 422.393C125.269 420.213 126.977 416.495 125.103 415.697C123.228 414.899 113.22 415.697 106.811 413.403C100.401 411.11 105.299 379.654 109.502 377.417C113.704 375.181 133.584 380.452 137.454 383.272C140.901 385.78 145.738 390.125 143.501 399.314C146.151 396.979 148.217 394.118 149.548 390.937C151.422 386.663 152.783 387.66 155.595 389.299C157.283 390.196 158.749 391.422 159.893 392.897C161.038 394.371 161.835 396.058 162.231 397.846C162.912 401.835 161.808 415.597 155.852 420.071C155.852 420.071 161.566 420.755 166.237 411.665C166.237 411.665 175.308 415.113 177.364 420.698C179.42 426.282 181.657 453.621 166.147 467.81Z" fill="#407BFF"/>
<path d="M167.689 470.916C167.504 470.914 167.326 470.85 167.187 470.735C167.048 470.62 166.958 470.461 166.933 470.289C162.942 439.503 138.104 399.057 113.75 383.871C113.581 383.765 113.464 383.6 113.425 383.413C113.385 383.226 113.426 383.032 113.538 382.873C113.65 382.715 113.825 382.605 114.023 382.567C114.222 382.53 114.428 382.568 114.596 382.674C139.253 398.131 164.484 438.99 168.429 470.118C168.455 470.305 168.401 470.494 168.279 470.644C168.158 470.793 167.978 470.891 167.779 470.916H167.689Z" fill="white"/>
<path d="M169.216 475.218C168.314 474.629 167.57 473.85 167.045 472.942C166.52 472.034 166.228 471.023 166.192 469.99V129.631C166.254 128.56 166.583 127.517 167.153 126.589C167.723 125.661 168.518 124.872 169.473 124.288L396.235 0.886481C397.182 0.326242 398.274 0.0200854 399.393 0.000954966C400.511 -0.0181755 401.614 0.25044 402.583 0.777905C403.551 1.30537 404.349 2.07172 404.89 2.99452C405.431 3.91733 405.695 4.96165 405.653 6.01516L175.565 475.104C174.591 475.592 173.508 475.857 172.405 475.877C171.301 475.897 170.209 475.671 169.216 475.218Z" fill="#E0E0E0"/>
<path d="M172.284 136.098L264.395 79.2982L258.258 75.9503L169.427 124.288C168.473 124.872 167.678 125.661 167.108 126.589C166.538 127.517 166.208 128.559 166.147 129.63V132.75L172.284 136.098Z" fill="#37474F"/>
<path opacity="0.2" d="M172.284 136.098L264.395 79.2982L258.258 75.9503L169.427 124.288C168.473 124.872 167.678 125.661 167.108 126.589C166.538 127.517 166.208 128.559 166.147 129.63V132.75L172.284 136.098Z" fill="#37474F"/>
<path d="M203.048 146.113L167.099 126.625C166.513 127.543 166.186 128.588 166.147 129.659V469.961C166.108 471.013 166.374 472.056 166.916 472.977C167.458 473.897 168.256 474.661 169.224 475.187C170.192 475.713 171.294 475.98 172.411 475.961C173.528 475.941 174.618 475.635 175.565 475.075L203.048 460.188V146.113Z" fill="#263238"/>
<path opacity="0.4" d="M203.048 146.113L167.099 126.625C166.513 127.543 166.186 128.588 166.147 129.659V469.961C166.108 471.013 166.374 472.056 166.916 472.977C167.458 473.897 168.256 474.661 169.224 475.187C170.192 475.713 171.294 475.98 172.411 475.961C173.528 475.941 174.618 475.635 175.565 475.075L203.048 460.188V146.113Z" fill="#263238"/>
<path d="M175.565 475.104L402.327 351.702C403.282 351.118 404.076 350.33 404.646 349.402C405.217 348.473 405.546 347.431 405.607 346.36V6.01525C405.607 4.04925 404.096 3.25146 402.327 4.23445L175.565 127.636C174.61 128.22 173.816 129.009 173.245 129.937C172.675 130.865 172.346 131.908 172.284 132.979V473.323C172.284 475.289 173.751 476.087 175.565 475.104Z" fill="#455A64"/>
<path opacity="0.1" d="M175.565 475.104L402.327 351.702C403.282 351.118 404.076 350.33 404.646 349.402C405.217 348.473 405.546 347.431 405.607 346.36V6.01525C405.607 4.04925 404.096 3.25146 402.327 4.23445L175.565 127.636C174.61 128.22 173.816 129.009 173.245 129.937C172.675 130.865 172.346 131.908 172.284 132.979V473.323C172.284 475.289 173.751 476.087 175.565 475.104Z" fill="#455A64"/>
<path d="M191.121 211.59L245.544 181.957C249.157 179.991 252.09 181.388 252.09 185.077C251.928 187.149 251.251 189.156 250.114 190.935C248.977 192.715 247.411 194.217 245.544 195.32L191.121 224.953C187.493 226.919 184.575 225.523 184.575 221.833C184.733 219.76 185.408 217.752 186.546 215.972C187.683 214.192 189.251 212.691 191.121 211.59Z" fill="#407BFF"/>
<path d="M191.121 232.617L227.146 213.014C230.759 211.048 233.692 212.445 233.692 216.134C233.53 218.206 232.853 220.213 231.716 221.992C230.579 223.772 229.013 225.274 227.146 226.377L191.121 245.98C187.493 247.946 184.575 246.55 184.575 242.86C184.733 240.788 185.408 238.78 186.546 237C187.683 235.22 189.251 233.718 191.121 232.617Z" fill="#407BFF"/>
<path d="M187.19 268.603L194.235 264.771C195.747 263.988 196.85 264.629 196.85 266.196V273.86C196.801 274.716 196.539 275.549 196.084 276.292C195.63 277.034 194.996 277.666 194.235 278.134L187.19 281.91C185.678 282.707 184.575 282.066 184.575 280.485V272.82C184.634 271.975 184.902 271.153 185.355 270.422C185.809 269.69 186.437 269.067 187.19 268.603Z" fill="#407BFF"/>
<path opacity="0.2" d="M187.19 268.603L194.235 264.771C195.747 263.988 196.85 264.629 196.85 266.196V273.86C196.801 274.716 196.539 275.549 196.084 276.292C195.63 277.034 194.996 277.666 194.235 278.134L187.19 281.91C185.678 282.707 184.575 282.066 184.575 280.485V272.82C184.634 271.975 184.902 271.153 185.355 270.422C185.809 269.69 186.437 269.067 187.19 268.603Z" fill="black"/>
<path d="M187.19 295.344L194.235 291.512C195.747 290.714 196.85 291.355 196.85 292.936V300.601C196.798 301.456 196.534 302.288 196.08 303.03C195.626 303.772 194.994 304.404 194.235 304.875L187.19 308.707C185.678 309.491 184.575 308.849 184.575 307.282V299.618C184.622 298.761 184.883 297.928 185.338 297.185C185.792 296.442 186.427 295.811 187.19 295.344Z" fill="#407BFF"/>
<g opacity="0.2">
<path d="M187.19 295.344L194.235 291.512C195.747 290.714 196.85 291.355 196.85 292.936V300.601C196.798 301.456 196.534 302.288 196.08 303.03C195.626 303.772 194.994 304.404 194.235 304.875L187.19 308.707C185.678 309.491 184.575 308.849 184.575 307.282V299.618C184.622 298.761 184.883 297.928 185.338 297.185C185.792 296.442 186.427 295.811 187.19 295.344Z" fill="black"/>
</g>
<path d="M206.268 288.306L248.839 265.127C250.653 264.144 252.12 264.842 252.12 266.695C252.038 267.73 251.698 268.732 251.128 269.621C250.558 270.51 249.774 271.259 248.839 271.809L206.268 294.988C204.454 295.971 202.988 295.273 202.988 293.421C203.07 292.385 203.41 291.383 203.98 290.494C204.55 289.606 205.334 288.856 206.268 288.306Z" fill="#407BFF"/>
<path opacity="0.2" d="M206.268 288.306L248.839 265.127C250.653 264.144 252.12 264.842 252.12 266.695C252.038 267.73 251.698 268.732 251.128 269.621C250.558 270.51 249.774 271.259 248.839 271.809L206.268 294.988C204.454 295.971 202.988 295.273 202.988 293.421C203.07 292.385 203.41 291.383 203.98 290.494C204.55 289.606 205.334 288.856 206.268 288.306Z" fill="black"/>
<path d="M187.19 322.07L194.235 318.238C195.747 317.44 196.85 318.081 196.85 319.662V327.327C196.799 328.182 196.536 329.014 196.081 329.757C195.627 330.499 194.995 331.13 194.235 331.601L187.19 335.433C185.678 336.217 184.575 335.575 184.575 334.008V326.344C184.622 325.487 184.883 324.654 185.338 323.911C185.792 323.168 186.427 322.537 187.19 322.07Z" fill="#E0E0E0"/>
<path d="M206.268 315.032L248.839 291.882C250.653 290.899 252.12 291.597 252.12 293.449C252.04 294.485 251.701 295.489 251.131 296.377C250.561 297.266 249.776 298.015 248.839 298.564L206.268 321.742C204.454 322.725 202.988 322.027 202.988 320.175C203.066 319.135 203.403 318.127 203.973 317.233C204.543 316.339 205.33 315.585 206.268 315.032Z" fill="#F0F0F0"/>
<path d="M187.19 348.868L194.235 345.035C195.747 344.237 196.85 344.879 196.85 346.46V354.124C196.799 354.98 196.536 355.812 196.081 356.554C195.627 357.296 194.995 357.928 194.235 358.398L187.19 362.231C185.678 363.014 184.575 362.373 184.575 360.806V353.141C184.622 352.285 184.883 351.451 185.338 350.708C185.792 349.965 186.427 349.335 187.19 348.868Z" fill="#E0E0E0"/>
<path d="M206.268 341.83L248.839 318.665C250.653 317.668 252.12 318.38 252.12 320.218C252.04 321.256 251.701 322.261 251.131 323.153C250.561 324.044 249.776 324.796 248.839 325.347L206.268 348.511C204.454 349.494 202.988 348.796 202.988 346.944C203.07 345.909 203.41 344.906 203.98 344.018C204.55 343.129 205.334 342.38 206.268 341.83Z" fill="#F0F0F0"/>
<path d="M187.19 375.594L194.235 371.761C195.747 370.964 196.85 371.605 196.85 373.186V380.851C196.799 381.706 196.536 382.538 196.081 383.28C195.627 384.022 194.995 384.654 194.235 385.125L187.19 388.957C185.678 389.74 184.575 389.099 184.575 387.532V379.868C184.622 379.011 184.883 378.177 185.338 377.434C185.792 376.692 186.427 376.061 187.19 375.594Z" fill="#E0E0E0"/>
<path d="M206.268 368.556L248.839 345.391C250.653 344.394 252.12 345.107 252.12 346.944C252.04 347.982 251.701 348.988 251.131 349.879C250.561 350.77 249.776 351.522 248.839 352.073L206.268 375.238C204.454 376.221 202.988 375.522 202.988 373.67C203.07 372.635 203.41 371.632 203.98 370.744C204.55 369.855 205.334 369.106 206.268 368.556Z" fill="#F0F0F0"/>
<path d="M187.84 401.892L218.075 385.409C219.889 384.426 221.356 385.124 221.356 386.976C221.274 388.012 220.934 389.014 220.364 389.903C219.794 390.792 219.01 391.541 218.075 392.091L187.84 408.574C186.041 409.557 184.575 408.859 184.575 407.021C184.654 405.985 184.991 404.981 185.558 404.09C186.126 403.199 186.907 402.446 187.84 401.892Z" fill="#407BFF"/>
<path d="M187.84 415.255L248.839 382.075C250.653 381.092 252.12 381.791 252.12 383.628C252.04 384.666 251.701 385.672 251.131 386.563C250.561 387.454 249.776 388.206 248.839 388.757L187.84 421.937C186.041 422.92 184.575 422.222 184.575 420.384C184.654 419.348 184.991 418.343 185.558 417.452C186.126 416.562 186.907 415.809 187.84 415.255Z" fill="#407BFF"/>
<path opacity="0.8" d="M187.84 415.255L248.839 382.075C250.653 381.092 252.12 381.791 252.12 383.628C252.04 384.666 251.701 385.672 251.131 386.563C250.561 387.454 249.776 388.206 248.839 388.757L187.84 421.937C186.041 422.92 184.575 422.222 184.575 420.384C184.654 419.348 184.991 418.343 185.558 417.452C186.126 416.562 186.907 415.809 187.84 415.255Z" fill="white"/>
<path d="M187.84 415.255L230.426 392.091C232.225 391.108 233.692 391.806 233.692 393.658C233.61 394.692 233.272 395.693 232.705 396.581C232.138 397.47 231.357 398.22 230.426 398.772L187.84 421.937C186.041 422.92 184.575 422.222 184.575 420.384C184.654 419.348 184.991 418.344 185.558 417.453C186.126 416.562 186.907 415.809 187.84 415.255Z" fill="#407BFF"/>
<path d="M187.84 428.647L218.075 412.164C219.889 411.181 221.356 411.879 221.356 413.731C221.274 414.766 220.934 415.769 220.364 416.657C219.794 417.546 219.01 418.296 218.075 418.845L187.84 435.328C186.041 436.311 184.575 435.613 184.575 433.775C184.654 432.739 184.991 431.735 185.558 430.844C186.126 429.953 186.907 429.2 187.84 428.647Z" fill="#407BFF"/>
<path d="M206.268 261.566L248.839 238.401C250.653 237.418 252.12 238.116 252.12 239.968C252.038 241.004 251.698 242.006 251.128 242.895C250.558 243.783 249.774 244.533 248.839 245.083L206.268 268.247C204.454 269.23 202.988 268.532 202.988 266.695C203.068 265.657 203.407 264.651 203.977 263.76C204.547 262.869 205.332 262.117 206.268 261.566Z" fill="#407BFF"/>
<path opacity="0.2" d="M206.268 261.566L248.839 238.401C250.653 237.418 252.12 238.116 252.12 239.968C252.038 241.004 251.698 242.006 251.128 242.895C250.558 243.783 249.774 244.533 248.839 245.083L206.268 268.247C204.454 269.23 202.988 268.532 202.988 266.695C203.068 265.657 203.407 264.651 203.977 263.76C204.547 262.869 205.332 262.117 206.268 261.566Z" fill="black"/>
<path d="M187.84 428.647L218.075 412.164C219.889 411.181 221.356 411.879 221.356 413.731C221.274 414.766 220.934 415.769 220.364 416.657C219.794 417.546 219.01 418.296 218.075 418.845L187.84 435.328C186.041 436.311 184.575 435.613 184.575 433.775C184.654 432.739 184.991 431.735 185.558 430.844C186.126 429.953 186.907 429.2 187.84 428.647Z" fill="#407BFF"/>
<path d="M187.84 441.967L248.839 408.787C250.653 407.804 252.12 408.503 252.12 410.34C252.04 411.378 251.701 412.384 251.131 413.275C250.561 414.166 249.776 414.918 248.839 415.469L187.84 448.592C186.041 449.589 184.575 448.877 184.575 447.039C184.663 446.013 185.005 445.02 185.572 444.139C186.138 443.259 186.915 442.515 187.84 441.967Z" fill="#407BFF"/>
<path opacity="0.8" d="M187.84 441.967L248.839 408.787C250.653 407.804 252.12 408.503 252.12 410.34C252.04 411.378 251.701 412.384 251.131 413.275C250.561 414.166 249.776 414.918 248.839 415.469L187.84 448.592C186.041 449.589 184.575 448.877 184.575 447.039C184.663 446.013 185.005 445.02 185.572 444.139C186.138 443.259 186.915 442.515 187.84 441.967Z" fill="white"/>
<path d="M187.84 441.967L242.702 412.05C244.516 411.067 245.982 411.765 245.982 413.617C245.9 414.652 245.56 415.655 244.99 416.543C244.42 417.432 243.636 418.181 242.702 418.731L187.84 448.649C186.041 449.646 184.575 448.934 184.575 447.096C184.654 446.059 184.991 445.055 185.558 444.164C186.126 443.273 186.907 442.521 187.84 441.967Z" fill="#407BFF"/>
<path d="M402.357 4.23439L264.395 79.2983V426.766L402.357 351.717C403.312 351.133 404.107 350.344 404.677 349.416C405.247 348.487 405.576 347.445 405.638 346.374V6.01518C405.623 4.10617 404.111 3.25139 402.357 4.23439Z" fill="#EBEBEB"/>
<path opacity="0.6" d="M402.357 4.23439L264.395 79.2983V426.766L402.357 351.717C403.312 351.133 404.107 350.344 404.677 349.416C405.247 348.487 405.576 347.445 405.638 346.374V6.01518C405.623 4.10617 404.111 3.25139 402.357 4.23439Z" fill="#FAFAFA"/>
<path d="M264.395 92.6614V119.387L252.12 132.751H264.395V159.477L393.347 89.3135V22.4982L264.395 92.6614Z" fill="#407BFF"/>
<g opacity="0.6">
<path d="M281.266 93.5873L333.512 65.0947C336.037 63.67 338.047 64.8382 338.047 67.5878C337.964 69.0817 337.511 70.5364 336.723 71.8353C335.935 73.1342 334.836 74.241 333.512 75.0671L281.266 103.489C278.727 104.913 276.731 103.745 276.731 100.995C276.822 99.5131 277.28 98.0713 278.067 96.7851C278.855 95.4989 279.95 94.4039 281.266 93.5873Z" fill="white"/>
</g>
<path d="M278.318 115.228L379.439 60.2083C380.346 59.7239 381.072 60.0658 381.072 60.9918C381.033 61.5101 380.865 62.0124 380.581 62.458C380.297 62.9035 379.906 63.2797 379.439 63.5562L278.318 118.504C277.411 118.989 276.686 118.647 276.686 117.721C276.736 117.215 276.91 116.727 277.193 116.294C277.476 115.862 277.861 115.497 278.318 115.228Z" fill="#407BFF"/>
<path d="M278.318 115.228L379.439 60.2083C380.346 59.7239 381.072 60.0658 381.072 60.9918C381.033 61.5101 380.865 62.0124 380.581 62.458C380.297 62.9035 379.906 63.2797 379.439 63.5562L278.318 118.504C277.411 118.989 276.686 118.647 276.686 117.721C276.736 117.215 276.91 116.727 277.193 116.294C277.476 115.862 277.861 115.497 278.318 115.228Z" fill="#407BFF"/>
<path opacity="0.6" d="M278.318 115.228L379.439 60.2083C380.346 59.7239 381.072 60.0658 381.072 60.9918C381.033 61.5101 380.865 62.0124 380.581 62.458C380.297 62.9035 379.906 63.2797 379.439 63.5562L278.318 118.504C277.411 118.989 276.686 118.647 276.686 117.721C276.736 117.215 276.91 116.727 277.193 116.294C277.476 115.862 277.861 115.497 278.318 115.228Z" fill="white"/>
<path d="M278.318 125.2L379.439 70.1806C380.346 69.682 381.072 70.0382 381.072 70.9642C381.033 71.4806 380.865 71.9809 380.581 72.4241C380.297 72.8674 379.906 73.241 379.439 73.5143L278.318 128.534C277.411 129.032 276.686 128.676 276.686 127.75C276.725 127.234 276.893 126.733 277.177 126.29C277.461 125.847 277.852 125.473 278.318 125.2Z" fill="#407BFF"/>
<path opacity="0.6" d="M278.318 125.2L379.439 70.1806C380.346 69.682 381.072 70.0382 381.072 70.9642C381.033 71.4806 380.865 71.9809 380.581 72.4241C380.297 72.8674 379.906 73.241 379.439 73.5143L278.318 128.534C277.411 129.032 276.686 128.676 276.686 127.75C276.725 127.234 276.893 126.733 277.177 126.29C277.461 125.847 277.852 125.473 278.318 125.2Z" fill="white"/>
<path opacity="0.6" d="M278.318 135.173L379.439 80.1532C380.346 79.6688 381.072 80.0107 381.072 80.9368C381.033 81.455 380.865 81.9573 380.581 82.4029C380.297 82.8484 379.906 83.2247 379.439 83.5011L278.318 138.52C277.411 139.005 276.686 138.663 276.686 137.737C276.725 137.219 276.893 136.716 277.177 136.271C277.46 135.825 277.851 135.449 278.318 135.173Z" fill="white"/>
<path d="M282.128 163.238L289.218 159.391C290.73 158.593 291.833 159.234 291.833 160.816V168.48C291.783 169.336 291.52 170.169 291.066 170.911C290.612 171.653 289.979 172.285 289.218 172.754L282.173 176.587C280.662 177.37 279.558 176.729 279.558 175.162V167.512C279.6 166.659 279.854 165.828 280.301 165.085C280.747 164.342 281.373 163.71 282.128 163.238Z" fill="#407BFF"/>
<path opacity="0.2" d="M282.128 163.238L289.218 159.391C290.73 158.593 291.833 159.234 291.833 160.816V168.48C291.783 169.336 291.52 170.169 291.066 170.911C290.612 171.653 289.979 172.285 289.218 172.754L282.173 176.587C280.662 177.37 279.558 176.729 279.558 175.162V167.512C279.6 166.659 279.854 165.828 280.301 165.085C280.747 164.342 281.373 163.71 282.128 163.238Z" fill="white"/>
<path d="M301.206 156.2L343.777 133.021C345.591 132.038 347.058 132.736 347.058 134.588C346.975 135.624 346.636 136.626 346.066 137.515C345.496 138.403 344.712 139.153 343.777 139.703L301.206 162.881C299.392 163.864 297.926 163.166 297.926 161.314C298.008 160.279 298.348 159.276 298.918 158.388C299.488 157.499 300.272 156.75 301.206 156.2Z" fill="#407BFF"/>
<path opacity="0.8" d="M301.206 156.2L343.777 133.021C345.591 132.038 347.058 132.736 347.058 134.588C346.975 135.624 346.636 136.626 346.066 137.515C345.496 138.403 344.712 139.153 343.777 139.703L301.206 162.881C299.392 163.864 297.926 163.166 297.926 161.314C298.008 160.279 298.348 159.276 298.918 158.388C299.488 157.499 300.272 156.75 301.206 156.2Z" fill="white"/>
<path d="M281.145 187.172L388.479 128.762C389.386 128.263 390.112 128.619 390.112 129.531C390.074 130.049 389.906 130.552 389.623 130.998C389.339 131.444 388.947 131.82 388.479 132.095L281.145 190.505C280.238 191.004 279.513 190.648 279.513 189.722C279.552 189.205 279.72 188.705 280.004 188.262C280.288 187.818 280.679 187.445 281.145 187.172Z" fill="#407BFF"/>
<path d="M281.145 197.187L388.479 138.777C389.386 138.292 390.112 138.634 390.112 139.56C390.073 140.079 389.905 140.581 389.621 141.026C389.337 141.472 388.946 141.848 388.479 142.125L281.145 200.535C280.238 201.019 279.513 200.677 279.513 199.751C279.552 199.233 279.72 198.73 280.004 198.285C280.287 197.839 280.678 197.463 281.145 197.187Z" fill="#407BFF"/>
<path d="M281.145 207.216L388.479 148.806C389.386 148.308 390.112 148.664 390.112 149.575C390.074 150.094 389.906 150.597 389.623 151.042C389.339 151.488 388.947 151.864 388.479 152.14L281.145 210.55C280.238 211.048 279.513 210.692 279.513 209.78C279.551 209.262 279.718 208.759 280.002 208.313C280.286 207.868 280.678 207.492 281.145 207.216Z" fill="#407BFF"/>
<path d="M281.145 217.26L388.479 158.85C389.386 158.365 390.112 158.707 390.112 159.633C390.073 160.152 389.905 160.654 389.621 161.1C389.337 161.545 388.946 161.921 388.479 162.198L281.145 220.608C280.238 221.092 279.513 220.75 279.513 219.824C279.552 219.306 279.72 218.804 280.004 218.358C280.287 217.912 280.678 217.536 281.145 217.26Z" fill="#407BFF"/>
<path d="M281.145 187.172L388.479 128.762C389.386 128.263 390.112 128.619 390.112 129.531C390.074 130.049 389.906 130.552 389.623 130.998C389.339 131.444 388.947 131.82 388.479 132.095L281.145 190.505C280.238 191.004 279.513 190.648 279.513 189.722C279.552 189.205 279.72 188.705 280.004 188.262C280.288 187.818 280.679 187.445 281.145 187.172Z" fill="#E0E0E0"/>
<path d="M281.145 197.187L388.479 138.777C389.386 138.292 390.112 138.634 390.112 139.56C390.073 140.079 389.905 140.581 389.621 141.026C389.337 141.472 388.946 141.848 388.479 142.125L281.145 200.535C280.238 201.019 279.513 200.677 279.513 199.751C279.552 199.233 279.72 198.73 280.004 198.285C280.287 197.839 280.678 197.463 281.145 197.187Z" fill="#E0E0E0"/>
<path d="M281.145 207.216L388.479 148.806C389.386 148.308 390.112 148.664 390.112 149.575C390.074 150.094 389.906 150.597 389.623 151.042C389.339 151.488 388.947 151.864 388.479 152.14L281.145 210.55C280.238 211.048 279.513 210.692 279.513 209.78C279.551 209.262 279.718 208.759 280.002 208.313C280.286 207.868 280.678 207.492 281.145 207.216Z" fill="#E0E0E0"/>
<path d="M281.145 217.26L388.479 158.85C389.386 158.365 390.112 158.707 390.112 159.633C390.073 160.152 389.905 160.654 389.621 161.1C389.337 161.545 388.946 161.921 388.479 162.198L281.145 220.608C280.238 221.092 279.513 220.75 279.513 219.824C279.552 219.306 279.72 218.804 280.004 218.358C280.287 217.912 280.678 217.536 281.145 217.26Z" fill="#E0E0E0"/>
<path opacity="0.8" d="M281.145 187.172L388.479 128.762C389.386 128.263 390.112 128.619 390.112 129.531C390.074 130.049 389.906 130.552 389.623 130.998C389.339 131.444 388.947 131.82 388.479 132.095L281.145 190.505C280.238 191.004 279.513 190.648 279.513 189.722C279.552 189.205 279.72 188.705 280.004 188.262C280.288 187.818 280.679 187.445 281.145 187.172Z" fill="#E0E0E0"/>
<path opacity="0.8" d="M281.145 197.187L388.479 138.777C389.386 138.292 390.112 138.634 390.112 139.56C390.073 140.079 389.905 140.581 389.621 141.026C389.337 141.472 388.946 141.848 388.479 142.125L281.145 200.535C280.238 201.019 279.513 200.677 279.513 199.751C279.552 199.233 279.72 198.73 280.004 198.285C280.287 197.839 280.678 197.463 281.145 197.187Z" fill="#E0E0E0"/>
<path opacity="0.8" d="M281.145 207.216L388.479 148.806C389.386 148.308 390.112 148.664 390.112 149.575C390.074 150.094 389.906 150.597 389.623 151.042C389.339 151.488 388.947 151.864 388.479 152.14L281.145 210.55C280.238 211.048 279.513 210.692 279.513 209.78C279.551 209.262 279.718 208.759 280.002 208.313C280.286 207.868 280.678 207.492 281.145 207.216Z" fill="#E0E0E0"/>
<path opacity="0.8" d="M281.145 217.26L388.479 158.85C389.386 158.365 390.112 158.707 390.112 159.633C390.073 160.152 389.905 160.654 389.621 161.1C389.337 161.545 388.946 161.921 388.479 162.198L281.145 220.608C280.238 221.092 279.513 220.75 279.513 219.824C279.552 219.306 279.72 218.804 280.004 218.358C280.287 217.912 280.678 217.536 281.145 217.26Z" fill="#E0E0E0"/>
<path d="M281.145 259.828L388.479 201.418C389.386 200.919 390.112 201.275 390.112 202.187C390.074 202.706 389.906 203.208 389.623 203.654C389.339 204.1 388.947 204.476 388.479 204.751L281.145 263.161C280.238 263.66 279.513 263.304 279.513 262.378C279.552 261.862 279.72 261.361 280.004 260.918C280.288 260.475 280.679 260.101 281.145 259.828Z" fill="#E0E0E0"/>
<path d="M281.145 269.843L388.479 211.433C389.386 210.949 390.112 211.291 390.112 212.217C390.073 212.735 389.905 213.237 389.621 213.683C389.337 214.128 388.946 214.505 388.479 214.781L281.145 273.191C280.238 273.675 279.513 273.333 279.513 272.407C279.552 271.889 279.72 271.387 280.004 270.941C280.287 270.496 280.678 270.119 281.145 269.843Z" fill="#E0E0E0"/>
<path d="M281.145 279.872L388.479 221.463C389.386 220.964 390.112 221.32 390.112 222.232C390.074 222.75 389.906 223.253 389.623 223.699C389.339 224.145 388.947 224.521 388.479 224.796L281.145 283.206C280.238 283.705 279.513 283.349 279.513 282.437C279.551 281.918 279.718 281.416 280.002 280.97C280.286 280.524 280.678 280.148 281.145 279.872Z" fill="#E0E0E0"/>
<path d="M281.145 289.916L388.479 231.506C389.386 231.022 390.112 231.364 390.112 232.29C390.073 232.808 389.905 233.31 389.621 233.756C389.337 234.201 388.946 234.578 388.479 234.854L281.145 293.264C280.238 293.748 279.513 293.407 279.513 292.481C279.552 291.962 279.72 291.46 280.004 291.014C280.287 290.569 280.678 290.193 281.145 289.916Z" fill="#E0E0E0"/>
<path opacity="0.8" d="M281.145 259.828L388.479 201.418C389.386 200.919 390.112 201.275 390.112 202.187C390.074 202.706 389.906 203.208 389.623 203.654C389.339 204.1 388.947 204.476 388.479 204.751L281.145 263.161C280.238 263.66 279.513 263.304 279.513 262.378C279.552 261.862 279.72 261.361 280.004 260.918C280.288 260.475 280.679 260.101 281.145 259.828Z" fill="#E0E0E0"/>
<path opacity="0.8" d="M281.145 269.843L388.479 211.433C389.386 210.949 390.112 211.291 390.112 212.217C390.073 212.735 389.905 213.237 389.621 213.683C389.337 214.128 388.946 214.505 388.479 214.781L281.145 273.191C280.238 273.675 279.513 273.333 279.513 272.407C279.552 271.889 279.72 271.387 280.004 270.941C280.287 270.496 280.678 270.119 281.145 269.843Z" fill="#E0E0E0"/>
<path opacity="0.8" d="M281.145 279.872L388.479 221.463C389.386 220.964 390.112 221.32 390.112 222.232C390.074 222.75 389.906 223.253 389.623 223.699C389.339 224.145 388.947 224.521 388.479 224.796L281.145 283.206C280.238 283.705 279.513 283.349 279.513 282.437C279.551 281.918 279.718 281.416 280.002 280.97C280.286 280.524 280.678 280.148 281.145 279.872Z" fill="#E0E0E0"/>
<path opacity="0.8" d="M281.145 289.916L388.479 231.506C389.386 231.022 390.112 231.364 390.112 232.29C390.073 232.808 389.905 233.31 389.621 233.756C389.337 234.201 388.946 234.578 388.479 234.854L281.145 293.264C280.238 293.748 279.513 293.407 279.513 292.481C279.552 291.962 279.72 291.46 280.004 291.014C280.287 290.569 280.678 290.193 281.145 289.916Z" fill="#E0E0E0"/>
<path d="M281.145 333.909L388.479 275.499C389.386 275 390.112 275.356 390.112 276.268C390.074 276.787 389.906 277.289 389.623 277.735C389.339 278.181 388.947 278.557 388.479 278.832L281.145 337.242C280.238 337.741 279.513 337.385 279.513 336.459C279.552 335.942 279.72 335.442 280.004 334.999C280.288 334.556 280.679 334.182 281.145 333.909Z" fill="#E0E0E0"/>
<path d="M281.145 343.924L388.479 285.514C389.386 285.03 390.112 285.371 390.112 286.297C390.073 286.816 389.905 287.318 389.621 287.764C389.337 288.209 388.946 288.585 388.479 288.862L281.145 347.272C280.238 347.756 279.513 347.414 279.513 346.488C279.552 345.97 279.72 345.468 280.004 345.022C280.287 344.577 280.678 344.2 281.145 343.924Z" fill="#E0E0E0"/>
<path d="M281.145 353.953L388.479 295.543C389.386 295.045 390.112 295.401 390.112 296.313C390.074 296.831 389.906 297.334 389.623 297.78C389.339 298.226 388.947 298.602 388.479 298.877L281.145 357.287C280.238 357.786 279.513 357.43 279.513 356.518C279.551 355.999 279.718 355.496 280.002 355.051C280.286 354.605 280.678 354.229 281.145 353.953Z" fill="#E0E0E0"/>
<path d="M281.145 363.997L388.479 305.587C389.386 305.103 390.112 305.445 390.112 306.371C390.073 306.889 389.905 307.391 389.621 307.837C389.337 308.282 388.946 308.659 388.479 308.935L281.145 367.345C280.238 367.829 279.513 367.487 279.513 366.561C279.552 366.043 279.72 365.541 280.004 365.095C280.287 364.65 280.678 364.273 281.145 363.997Z" fill="#E0E0E0"/>
<path opacity="0.8" d="M281.145 333.909L388.479 275.499C389.386 275 390.112 275.356 390.112 276.268C390.074 276.787 389.906 277.289 389.623 277.735C389.339 278.181 388.947 278.557 388.479 278.832L281.145 337.242C280.238 337.741 279.513 337.385 279.513 336.459C279.552 335.942 279.72 335.442 280.004 334.999C280.288 334.556 280.679 334.182 281.145 333.909Z" fill="#E0E0E0"/>
<path opacity="0.8" d="M281.145 343.924L388.479 285.514C389.386 285.03 390.112 285.371 390.112 286.297C390.073 286.816 389.905 287.318 389.621 287.764C389.337 288.209 388.946 288.585 388.479 288.862L281.145 347.272C280.238 347.756 279.513 347.414 279.513 346.488C279.552 345.97 279.72 345.468 280.004 345.022C280.287 344.577 280.678 344.2 281.145 343.924Z" fill="#E0E0E0"/>
<path opacity="0.8" d="M281.145 353.953L388.479 295.543C389.386 295.045 390.112 295.401 390.112 296.313C390.074 296.831 389.906 297.334 389.623 297.78C389.339 298.226 388.947 298.602 388.479 298.877L281.145 357.287C280.238 357.786 279.513 357.43 279.513 356.518C279.551 355.999 279.718 355.496 280.002 355.051C280.286 354.605 280.678 354.229 281.145 353.953Z" fill="#E0E0E0"/>
<path opacity="0.8" d="M281.145 363.997L388.479 305.587C389.386 305.103 390.112 305.445 390.112 306.371C390.073 306.889 389.905 307.391 389.621 307.837C389.337 308.282 388.946 308.659 388.479 308.935L281.145 367.345C280.238 367.829 279.513 367.487 279.513 366.561C279.552 366.043 279.72 365.541 280.004 365.095C280.287 364.65 280.678 364.273 281.145 363.997Z" fill="#E0E0E0"/>
<path d="M282.128 236.734L289.218 232.902C290.73 232.119 291.833 232.76 291.833 234.327V242.02C291.787 242.876 291.525 243.71 291.071 244.453C290.616 245.196 289.981 245.827 289.218 246.294L282.173 250.126C280.662 250.91 279.558 250.283 279.558 248.701V241.037C279.596 240.18 279.849 239.343 280.295 238.595C280.742 237.847 281.37 237.21 282.128 236.734Z" fill="#407BFF"/>
<path opacity="0.2" d="M282.128 236.734L289.218 232.902C290.73 232.119 291.833 232.76 291.833 234.327V242.02C291.787 242.876 291.525 243.71 291.071 244.453C290.616 245.196 289.981 245.827 289.218 246.294L282.173 250.126C280.662 250.91 279.558 250.283 279.558 248.701V241.037C279.596 240.18 279.849 239.343 280.295 238.595C280.742 237.847 281.37 237.21 282.128 236.734Z" fill="white"/>
<path d="M301.206 229.697L343.777 206.532C345.591 205.549 347.058 206.247 347.058 208.085C346.978 209.123 346.639 210.129 346.069 211.02C345.499 211.911 344.714 212.663 343.777 213.214L301.206 236.321C299.392 237.304 297.926 236.606 297.926 234.769C298.015 233.741 298.358 232.747 298.927 231.866C299.497 230.985 300.277 230.243 301.206 229.697Z" fill="#407BFF"/>
<path opacity="0.8" d="M301.206 229.697L343.777 206.532C345.591 205.549 347.058 206.247 347.058 208.085C346.978 209.123 346.639 210.129 346.069 211.02C345.499 211.911 344.714 212.663 343.777 213.214L301.206 236.321C299.392 237.304 297.926 236.606 297.926 234.769C298.015 233.741 298.358 232.747 298.927 231.866C299.497 230.985 300.277 230.243 301.206 229.697Z" fill="white"/>
<path d="M282.128 310.246L289.218 306.413C290.73 305.616 291.833 306.257 291.833 307.838V315.502C291.785 316.359 291.524 317.192 291.069 317.935C290.615 318.677 289.98 319.308 289.218 319.776L282.173 323.609C280.662 324.392 279.558 323.751 279.558 322.184V314.519C279.6 313.667 279.854 312.835 280.301 312.093C280.747 311.35 281.373 310.717 282.128 310.246Z" fill="#407BFF"/>
<path opacity="0.2" d="M282.128 310.246L289.218 306.413C290.73 305.616 291.833 306.257 291.833 307.838V315.502C291.785 316.359 291.524 317.192 291.069 317.935C290.615 318.677 289.98 319.308 289.218 319.776L282.173 323.609C280.662 324.392 279.558 323.751 279.558 322.184V314.519C279.6 313.667 279.854 312.835 280.301 312.093C280.747 311.35 281.373 310.717 282.128 310.246Z" fill="white"/>
<path d="M301.206 303.279L343.777 280.1C345.591 279.117 347.058 279.816 347.058 281.668C346.976 282.705 346.637 283.71 346.067 284.601C345.497 285.492 344.713 286.244 343.777 286.796L301.206 309.961C299.392 310.944 297.926 310.246 297.926 308.394C298.008 307.358 298.348 306.356 298.918 305.467C299.488 304.579 300.272 303.829 301.206 303.279Z" fill="#407BFF"/>
<path opacity="0.8" d="M301.206 303.279L343.777 280.1C345.591 279.117 347.058 279.816 347.058 281.668C346.976 282.705 346.637 283.71 346.067 284.601C345.497 285.492 344.713 286.244 343.777 286.796L301.206 309.961C299.392 310.944 297.926 310.246 297.926 308.394C298.008 307.358 298.348 306.356 298.918 305.467C299.488 304.579 300.272 303.829 301.206 303.279Z" fill="white"/>
<path d="M292.151 374.952L299.196 371.12C300.707 370.337 301.826 370.978 301.826 372.545V380.209C301.776 381.067 301.512 381.901 301.055 382.644C300.598 383.386 299.961 384.017 299.196 384.483L292.151 388.315C290.715 389.113 289.536 388.472 289.536 386.891V379.226C289.588 378.371 289.852 377.539 290.306 376.797C290.76 376.055 291.392 375.424 292.151 374.952Z" fill="#407BFF"/>
<path d="M281.145 400.995L310.216 385.181C311.123 384.697 311.849 385.039 311.849 385.965C311.81 386.483 311.642 386.985 311.358 387.431C311.074 387.876 310.683 388.253 310.216 388.529L281.145 404.342C280.238 404.827 279.513 404.485 279.513 403.559C279.552 403.041 279.72 402.538 280.004 402.093C280.287 401.647 280.678 401.271 281.145 400.995Z" fill="#E0E0E0"/>
<path d="M331.26 353.668L338.305 349.836C339.741 349.052 340.92 349.694 340.92 351.261V358.925C340.871 359.781 340.608 360.614 340.154 361.357C339.7 362.099 339.066 362.73 338.305 363.199L331.26 367.031C329.748 367.815 328.629 367.188 328.629 365.607V357.942C328.68 357.085 328.945 356.251 329.402 355.509C329.859 354.766 330.495 354.135 331.26 353.668Z" fill="#407BFF"/>
<path d="M320.239 379.711L349.31 363.897C350.217 363.399 350.943 363.755 350.943 364.681C350.904 365.197 350.735 365.698 350.452 366.141C350.168 366.584 349.777 366.958 349.31 367.231L320.239 383.059C319.332 383.557 318.606 383.201 318.606 382.289C318.642 381.768 318.809 381.263 319.093 380.814C319.376 380.366 319.769 379.988 320.239 379.711Z" fill="#E0E0E0"/>
<path d="M370.354 332.384L377.398 328.552C378.834 327.754 380.014 328.395 380.014 329.977V337.641C379.962 338.497 379.699 339.329 379.245 340.071C378.791 340.813 378.158 341.445 377.398 341.915L370.354 345.747C368.842 346.531 367.738 345.89 367.738 344.323V336.658C367.785 335.802 368.046 334.968 368.501 334.225C368.955 333.482 369.59 332.851 370.354 332.384Z" fill="#407BFF"/>
<path opacity="0.2" d="M292.151 374.952L299.196 371.12C300.707 370.337 301.826 370.978 301.826 372.545V380.209C301.776 381.067 301.512 381.901 301.055 382.644C300.598 383.386 299.961 384.017 299.196 384.483L292.151 388.315C290.715 389.113 289.536 388.472 289.536 386.891V379.226C289.588 378.371 289.852 377.539 290.306 376.797C290.76 376.055 291.392 375.424 292.151 374.952Z" fill="white"/>
<path opacity="0.2" d="M331.26 353.668L338.305 349.836C339.741 349.052 340.92 349.694 340.92 351.261V358.925C340.871 359.781 340.608 360.614 340.154 361.357C339.7 362.099 339.066 362.73 338.305 363.199L331.26 367.031C329.748 367.815 328.629 367.188 328.629 365.607V357.942C328.68 357.085 328.945 356.251 329.402 355.509C329.859 354.766 330.495 354.135 331.26 353.668Z" fill="white"/>
<path opacity="0.2" d="M370.354 332.384L377.398 328.552C378.834 327.754 380.014 328.395 380.014 329.977V337.641C379.962 338.497 379.699 339.329 379.245 340.071C378.791 340.813 378.158 341.445 377.398 341.915L370.354 345.747C368.842 346.531 367.738 345.89 367.738 344.323V336.658C367.785 335.802 368.046 334.968 368.501 334.225C368.955 333.482 369.59 332.851 370.354 332.384Z" fill="white"/>
<path d="M359.333 358.427L388.404 342.613C389.311 342.115 390.037 342.471 390.037 343.382C389.999 343.901 389.831 344.404 389.547 344.85C389.263 345.295 388.872 345.671 388.404 345.947L359.333 361.76C358.441 362.259 357.7 361.903 357.7 360.977C357.743 360.461 357.913 359.962 358.196 359.519C358.479 359.077 358.869 358.702 359.333 358.427Z" fill="#E0E0E0"/>
<mask id="mask0_115_1318" style="mask-type:luminance" maskUnits="userSpaceOnUse" x="184" y="116" width="62" height="76">
<path d="M215.278 120.727C198.317 129.73 184.575 152.168 184.575 170.831C184.575 189.494 198.317 197.158 215.278 187.927C232.24 178.695 245.982 156.271 245.982 137.808C245.982 119.345 232.225 111.709 215.278 120.727Z" fill="white"/>
</mask>
<g mask="url(#mask0_115_1318)">
<path d="M215.278 120.727C198.317 129.73 184.575 152.168 184.575 170.831C184.575 189.494 198.317 197.158 215.278 187.927C232.24 178.695 245.982 156.271 245.982 137.808C245.982 119.345 232.225 111.709 215.278 120.727Z" fill="#FAFAFA"/>
<path d="M230.154 178.239L205.573 184.451C205.15 184.581 204.699 184.609 204.261 184.533C203.823 184.458 203.412 184.28 203.065 184.017C202.718 183.754 202.447 183.414 202.275 183.027C202.103 182.64 202.036 182.218 202.081 181.801V142.367C202.168 139.103 203.325 135.944 205.393 133.324C207.461 130.705 210.338 128.753 213.631 127.736L222.036 125.613C228.431 124.003 233.616 127.935 233.616 134.389V173.837C233.589 174.817 233.242 175.765 232.622 176.553C232.003 177.34 231.141 177.929 230.154 178.239Z" fill="#37474F"/>
<path d="M231.333 188.439L228.748 177.683C228.748 177.683 228.748 163.166 226.556 161.827C224.364 160.488 223.729 160.232 223.729 160.232C226.541 159.32 232.467 158.636 234.311 163.736C236.08 168.551 238.726 180.419 239.98 186.26L231.333 188.439Z" fill="#F28F8F"/>
<path d="M231.122 188.496L222.353 160.36C226.239 158.935 231.227 157.753 233.646 161.528C235.823 164.919 239.3 182.684 239.98 186.26L231.122 188.496Z" fill="#407BFF"/>
<g opacity="0.4">
<path d="M231.122 188.496L222.353 160.36C226.239 158.935 231.227 157.753 233.646 161.528C235.823 164.919 239.3 182.684 239.98 186.26L231.122 188.496Z" fill="black"/>
</g>
<path d="M232.301 188.197L223.684 190.377C224.031 188.045 224.847 185.797 226.088 183.752C227.812 181.41 230.294 179.656 233.162 178.752C232.542 181.865 232.253 185.03 232.301 188.197Z" fill="#407BFF"/>
<path d="M232.301 188.197L223.684 190.377C224.031 188.045 224.847 185.797 226.088 183.752C227.812 181.41 230.294 179.656 233.162 178.752C232.542 181.865 232.253 185.03 232.301 188.197Z" fill="#407BFF"/>
<g opacity="0.7">
<path d="M232.301 188.197L223.684 190.377C224.031 188.045 224.847 185.797 226.088 183.752C227.812 181.41 230.294 179.656 233.162 178.752C232.542 181.865 232.253 185.03 232.301 188.197Z" fill="black"/>
</g>
<path d="M230.456 188.667L206.268 194.75L203.608 186.986C203.608 186.986 210.668 171.415 201.945 167.412C203.048 166.628 212.346 163.209 212.346 163.209L222.338 160.36C224.243 159.875 231.938 163.095 233.888 170.233C234.583 172.754 234.342 175.019 230.426 188.154C230.472 188.325 230.456 188.496 230.456 188.667Z" fill="#407BFF"/>
<path d="M228.461 130.457C230.124 131.027 232.18 134.731 231.983 143.663C231.817 151.242 229.398 153.636 228.189 154.547C226.377 155.402 224.379 155.846 222.353 155.844V160.36C222.353 160.36 225.498 163.209 225.301 165.375C225.105 167.54 220.766 169.079 217.833 167.797C215.691 166.658 213.839 165.093 212.406 163.209V152.809C212.185 153.049 211.916 153.245 211.614 153.386C211.312 153.527 210.983 153.609 210.647 153.629C210.311 153.649 209.974 153.606 209.655 153.502C209.337 153.398 209.044 153.235 208.793 153.023C208.321 152.719 207.918 152.328 207.609 151.874C207.3 151.42 207.091 150.913 206.994 150.382C206.896 149.85 206.913 149.306 207.043 148.781C207.173 148.256 207.413 147.761 207.75 147.325C209.262 145.458 211.907 145.188 212.935 147.054C214.215 144.127 216.505 141.692 219.436 140.144C224.213 137.409 226.813 134.973 228.461 130.457Z" fill="#FFA8A7"/>
<path d="M223.669 143.877C223.675 144.147 223.593 144.413 223.433 144.637C223.274 144.861 223.044 145.034 222.777 145.131C222.663 145.168 222.542 145.178 222.423 145.161C222.304 145.144 222.191 145.1 222.094 145.033C221.998 144.965 221.92 144.877 221.867 144.775C221.815 144.673 221.79 144.56 221.794 144.447C221.788 144.177 221.87 143.911 222.029 143.687C222.189 143.462 222.418 143.29 222.686 143.193C222.8 143.156 222.921 143.146 223.04 143.163C223.159 143.18 223.272 143.224 223.368 143.291C223.465 143.359 223.543 143.447 223.595 143.549C223.648 143.651 223.673 143.764 223.669 143.877Z" fill="#37474F"/>
<path d="M223.911 150.202L226.088 150.345C226.024 150.657 225.851 150.941 225.596 151.15C225.341 151.359 225.019 151.482 224.682 151.499C224.077 151.456 223.729 150.843 223.911 150.202Z" fill="#F28F8F"/>
<path d="M231.348 139.033L229.459 138.192C229.571 137.917 229.788 137.69 230.067 137.556C230.346 137.422 230.668 137.39 230.97 137.466C231.106 137.544 231.223 137.648 231.315 137.769C231.408 137.891 231.473 138.029 231.509 138.175C231.544 138.321 231.548 138.472 231.52 138.619C231.493 138.766 231.434 138.907 231.348 139.033Z" fill="#37474F"/>
<path d="M220.948 142.367L222.837 140.557C222.737 140.461 222.616 140.386 222.483 140.337C222.35 140.288 222.207 140.267 222.064 140.273C221.922 140.28 221.782 140.315 221.655 140.376C221.527 140.438 221.415 140.524 221.325 140.629C221.063 140.835 220.883 141.12 220.814 141.435C220.746 141.751 220.793 142.079 220.948 142.367Z" fill="#37474F"/>
<path d="M230.91 141.369C230.919 141.64 230.838 141.906 230.678 142.131C230.518 142.356 230.287 142.528 230.018 142.623C229.903 142.661 229.78 142.671 229.66 142.653C229.54 142.635 229.426 142.59 229.329 142.521C229.232 142.452 229.154 142.362 229.103 142.258C229.052 142.154 229.029 142.039 229.035 141.925C229.031 141.655 229.114 141.391 229.273 141.167C229.433 140.943 229.661 140.77 229.927 140.671C230.042 140.634 230.165 140.623 230.285 140.641C230.405 140.659 230.519 140.704 230.616 140.773C230.713 140.842 230.791 140.933 230.842 141.037C230.893 141.141 230.917 141.255 230.91 141.369Z" fill="#37474F"/>
<path d="M226.496 141.939L226.632 147.595L229.61 145.914L226.496 141.939Z" fill="#F28F8F"/>
<path d="M222.353 155.844C219.965 156.129 215.037 155.943 214.266 154.177C214.545 155.045 215.16 155.782 215.989 156.243C217.501 157.154 222.353 157.354 222.353 157.354V155.844Z" fill="#F28F8F"/>
<path d="M206.405 194.736L205.392 191.346L208.052 194.323L206.405 194.736Z" fill="#407BFF"/>
<path d="M204.424 195.235C203.339 190.361 201.868 185.571 200.025 180.903C197.485 174.336 200.327 168.666 202.036 167.412C203.744 166.158 212.436 163.209 212.436 163.209C215.581 171.643 216.443 182.94 216.518 192.186L204.424 195.235Z" fill="#407BFF"/>
<path opacity="0.4" d="M204.424 195.235C203.339 190.361 201.868 185.571 200.025 180.903C197.485 174.336 200.327 168.666 202.036 167.412C203.744 166.158 212.436 163.209 212.436 163.209C215.581 171.643 216.443 182.94 216.518 192.186L204.424 195.235Z" fill="black"/>
<path d="M200.131 196.318L191.499 198.497C191.257 198.344 191.03 198.173 190.818 197.984C190.818 197.984 194.9 183.14 196.2 178.21C197.5 173.281 198.498 169.891 202.005 167.412C208.309 171.272 205.392 182 205.392 182L200.131 196.318Z" fill="#407BFF"/>
<path opacity="0.4" d="M200.131 196.318L191.499 198.497C191.257 198.344 191.03 198.173 190.818 197.984C190.818 197.984 194.9 183.14 196.2 178.21C197.5 173.281 198.498 169.891 202.005 167.412C208.309 171.272 205.392 182 205.392 182L200.131 196.318Z" fill="black"/>
</g>
<path d="M74.4441 101.451V73.2292C74.3534 67.7586 78.1328 62.2738 85.7973 58.1138C100.915 49.8652 125.496 49.8652 140.644 58.1138C148.308 62.2738 152.087 67.7586 151.997 73.2292V101.351C151.997 106.794 148.278 116.524 140.644 120.669C125.526 128.918 100.945 128.918 85.7973 120.669C78.2386 116.567 74.4592 106.908 74.4441 101.508V101.451Z" fill="#EBEBEB"/>
<path d="M113.22 38.2119L177.213 73.0299L113.22 107.848L49.2282 73.0299L113.22 38.2119Z" fill="#F5F5F5"/>
<path d="M81.2016 90.4246L112.722 73.4715C112.852 73.4013 112.995 73.356 113.144 73.338C113.292 73.3201 113.443 73.33 113.588 73.367C113.732 73.404 113.868 73.4676 113.986 73.5539C114.105 73.6403 114.204 73.7478 114.279 73.8704C114.353 73.9929 114.401 74.1281 114.42 74.2681C114.439 74.4082 114.429 74.5504 114.389 74.6867C114.35 74.8229 114.283 74.9505 114.191 75.0622C114.099 75.174 113.985 75.2676 113.855 75.3377L83.4541 91.6498L81.2016 90.4246Z" fill="#E0E0E0"/>
<path d="M177.213 73.03V75.5231L113.22 110.327V107.848L177.213 73.03Z" fill="#E6E6E6"/>
<path d="M49.2282 73.03V75.5231L113.22 110.327V107.848L49.2282 73.03Z" fill="#F0F0F0"/>
<path d="M79.6143 92.0487L81.5644 93.1029C81.8593 92.6491 82.2698 92.2721 82.7587 92.0059L83.439 91.6355L81.2167 90.4388C80.5603 90.8544 80.0124 91.4048 79.6143 92.0487Z" fill="#E0E0E0"/>
<path d="M152.072 89.1996L113.22 114.059L74.4743 89.2566L113.22 110.327L152.072 89.1996Z" fill="#E0E0E0"/>
<path d="M77.1199 121.368C77.6621 121.631 78.2634 121.769 78.8735 121.769C79.4837 121.769 80.0849 121.631 80.6271 121.368L83.5146 138.934C83.5146 142.253 74.3685 142.253 74.3685 138.934L77.1199 121.368Z" fill="#F5F5F5"/>
<path d="M76.9536 131.397L76.3791 141.028C76.1906 140.974 76.0083 140.902 75.8349 140.814L76.9536 131.397Z" fill="#EBEBEB"/>
<path d="M81.2772 141.099L80.0678 125.428L81.8668 140.871C81.6752 140.958 81.4784 141.034 81.2772 141.099Z" fill="#EBEBEB"/>
<path d="M79.2212 141.412H78.6468L78.9491 128.975L79.2212 141.412Z" fill="#EBEBEB"/>
<path d="M78.8584 122.835C79.5285 122.819 80.1775 122.611 80.7179 122.237C80.9476 122.077 81.1038 121.84 81.1544 121.575C81.205 121.311 81.1462 121.037 80.99 120.812C80.825 120.59 80.5747 120.438 80.2924 120.388C80.0101 120.337 79.718 120.392 79.4782 120.541C79.3344 120.673 79.1419 120.746 78.9416 120.746C78.7412 120.746 78.5487 120.673 78.4049 120.541C78.2873 120.443 78.1492 120.368 77.9994 120.323C77.8496 120.277 77.6914 120.261 77.5348 120.277C77.3782 120.292 77.2267 120.338 77.0899 120.411C76.9531 120.484 76.834 120.584 76.7403 120.703C76.6465 120.822 76.5801 120.958 76.5452 121.103C76.5104 121.248 76.5079 121.398 76.5379 121.543C76.568 121.689 76.6298 121.827 76.7196 121.949C76.8094 122.071 76.9251 122.174 77.0594 122.251C77.5797 122.618 78.2088 122.822 78.8584 122.835Z" fill="#E0E0E0"/>
<path d="M78.934 120.1C79.0822 120.102 79.2293 120.076 79.3668 120.024C79.5042 119.972 79.6293 119.894 79.7348 119.796C79.8403 119.698 79.9241 119.581 79.9812 119.452C80.0384 119.324 80.0678 119.185 80.0678 119.046V94.143C80.0693 93.5831 80.2264 93.0333 80.5235 92.5484C80.8205 92.0635 81.2472 91.6604 81.761 91.3792L113.855 74.1412C114.11 74.0036 114.298 73.7771 114.377 73.5106C114.456 73.244 114.421 72.9588 114.279 72.7165C114.208 72.5962 114.112 72.4903 113.998 72.405C113.883 72.3197 113.752 72.2567 113.611 72.2195C113.471 72.1824 113.324 72.172 113.179 72.1888C113.034 72.2057 112.894 72.2494 112.767 72.3176L80.5969 89.5842C79.7394 90.0507 79.0269 90.7213 78.5308 91.5289C78.0347 92.3364 77.7723 93.2526 77.77 94.1857V119.088C77.7758 119.227 77.8105 119.363 77.8722 119.489C77.9339 119.614 78.0213 119.728 78.1294 119.822C78.2375 119.915 78.3643 119.988 78.5023 120.036C78.6404 120.084 78.7871 120.106 78.934 120.1Z" fill="#FAFAFA"/>
<path d="M81.4133 119.045C81.4163 118.583 81.2734 118.13 81.0028 117.744C80.7322 117.357 80.3461 117.056 79.8933 116.877C79.4406 116.698 78.9416 116.649 78.4597 116.738C77.9777 116.827 77.5346 117.048 77.1863 117.374C76.8381 117.7 76.6004 118.117 76.5035 118.57C76.4067 119.024 76.4549 119.494 76.6421 119.922C76.8293 120.35 77.147 120.715 77.555 120.973C77.9631 121.23 78.443 121.368 78.934 121.368C79.2589 121.369 79.5809 121.311 79.8816 121.195C80.1824 121.079 80.4558 120.908 80.6862 120.693C80.9166 120.477 81.0995 120.22 81.2243 119.937C81.349 119.655 81.4133 119.352 81.4133 119.045Z" fill="#F5F5F5"/>
<path d="M76.485 119.174C76.5883 119.415 76.7454 119.632 76.9458 119.811C77.1462 119.989 77.385 120.125 77.6461 120.209C77.9072 120.293 78.1844 120.323 78.4588 120.296C78.7332 120.27 78.9984 120.189 79.2364 120.057C79.54 119.885 79.7912 119.641 79.9655 119.351C80.1399 119.06 80.2315 118.731 80.2315 118.397C80.2315 118.063 80.1399 117.735 79.9655 117.444C79.7912 117.153 79.54 116.91 79.2364 116.738C79.6988 116.798 80.1337 116.981 80.4902 117.265C80.8468 117.549 81.1104 117.922 81.2503 118.342C81.3903 118.762 81.4009 119.21 81.2808 119.635C81.1608 120.06 80.915 120.445 80.5722 120.743C80.2293 121.042 79.8035 121.243 79.3443 121.322C78.8851 121.401 78.4115 121.356 77.9784 121.192C77.5454 121.027 77.1709 120.75 76.8985 120.393C76.626 120.036 76.4669 119.613 76.4396 119.174H76.485Z" fill="#EBEBEB"/>
<path d="M516.902 105.298L505.217 98.9582L511.641 97.676L518.036 101.879L516.902 105.298Z" fill="#E0E0E0"/>
<path d="M496.448 48.5547C496.448 31.4591 485.337 23.5239 471.686 30.9462L451.519 41.9159C437.914 49.3383 426.772 69.3401 426.772 86.4927C426.772 87.1908 426.772 87.9173 426.772 88.5299C426.772 88.9146 426.772 89.2422 426.772 89.6126C426.772 89.983 426.848 90.2822 426.878 90.6099C426.908 90.9375 426.968 91.3649 427.029 91.7353C427.333 93.7598 427.87 95.747 428.631 97.6618C428.949 98.3741 429.281 99.0864 429.644 99.6848C429.812 100.015 430.004 100.334 430.219 100.639L430.415 100.938C430.752 101.449 431.142 101.926 431.579 102.363C431.821 102.62 432.048 102.89 432.305 103.132L433.091 103.845C433.363 104.044 433.62 104.286 433.907 104.486C434.179 104.692 434.467 104.878 434.769 105.041L435.661 105.526C436.816 106.113 438.068 106.513 439.365 106.708C439.464 106.685 439.568 106.685 439.667 106.708C440.015 106.708 440.332 106.779 440.68 106.779C441.047 106.808 441.416 106.808 441.784 106.779C442.755 106.789 443.725 106.689 444.671 106.48C445.237 106.374 445.797 106.241 446.349 106.081C448.116 105.571 449.811 104.864 451.398 103.973L471.565 93.0033C472.947 92.2469 474.271 91.3996 475.526 90.4674C475.526 90.2395 475.526 90.04 475.526 89.8263C475.526 89.6126 475.526 89.1567 475.526 88.9003C475.526 88.3305 475.526 87.7464 475.526 87.1623C475.48 72.5883 484.793 55.3929 496.448 48.5547Z" fill="#E0E0E0"/>
<path d="M499.85 36.2314L488.134 29.8776C488.209 29.8776 489.328 37.5563 489.328 37.5563L498.021 38.5251L499.85 36.2314Z" fill="#E0E0E0"/>
<path d="M445.714 110.897L434.89 105.113L441.406 102.477L445.714 110.897Z" fill="#E0E0E0"/>
<path d="M451.519 104.144C451.442 108.366 450.003 112.465 447.392 115.897C446.908 116.495 447.649 117.023 448.193 116.752C450.664 115.544 452.854 113.882 454.633 111.865C458.053 108.057 460.444 103.526 461.603 98.6591L451.519 104.144Z" fill="#E0E0E0"/>
<path d="M447.513 116.724L459.229 123.077C459.229 123.077 465.805 117.849 465.805 107.264L453.091 106.452C453.091 106.452 452.789 113.347 447.513 116.724Z" fill="#E0E0E0"/>
<path d="M478.716 85.5809C478.716 86.1128 478.716 86.6256 478.716 87.1195C478.716 87.4044 478.716 87.6466 478.716 87.9173C478.716 88.188 478.716 88.4159 478.806 88.6723C478.897 88.9288 478.806 89.2422 478.912 89.5271C479.087 90.7891 479.401 92.0305 479.849 93.2312C479.914 93.4499 479.995 93.6641 480.091 93.8723C480.202 94.1584 480.328 94.439 480.469 94.7128C480.587 94.9775 480.723 95.2345 480.877 95.4821C480.997 95.7303 481.139 95.9686 481.301 96.1944L481.452 96.4224C481.718 96.8148 482.011 97.1907 482.329 97.5478C482.494 97.7555 482.676 97.9508 482.873 98.1319L483.447 98.659C483.643 98.8323 483.85 98.994 484.067 99.1434C484.274 99.2942 484.491 99.4322 484.717 99.5565C484.944 99.6848 485.156 99.813 485.398 99.927L486.093 100.24L486.819 100.483C487.261 100.609 487.71 100.713 488.164 100.796H488.391C488.642 100.818 488.895 100.818 489.147 100.796C489.418 100.825 489.692 100.825 489.963 100.796C490.613 100.796 491.261 100.734 491.898 100.611C492.408 100.529 492.913 100.42 493.41 100.283C494.737 99.8999 496.011 99.369 497.204 98.7018L512.322 90.4674C513.67 89.734 514.941 88.88 516.116 87.9173C516.54 87.5754 516.963 87.205 517.386 86.8346C518.148 86.1656 518.87 85.4569 519.548 84.7119L520.515 83.8856C520.772 83.6007 521.014 83.3015 521.271 83.0023C521.334 82.8988 521.41 82.803 521.498 82.7174C522.505 81.4631 523.433 80.155 524.28 78.7996C524.506 78.4435 524.718 78.0731 524.945 77.7027C525.172 77.3323 525.383 76.9619 525.595 76.5772C525.807 76.1926 526.003 75.8079 526.215 75.4375L526.789 74.2693C526.986 73.8847 527.167 73.4715 527.348 73.1011C527.666 72.4173 527.953 71.6765 528.21 71.0211C528.21 70.8929 528.316 70.7647 528.361 70.6365C528.528 70.2376 528.664 69.8387 528.8 69.4398C529.072 68.6705 529.314 67.9012 529.556 67.1034C530.088 65.231 530.487 63.3273 530.75 61.4049C530.75 61.0772 530.826 60.7638 530.871 60.4361C530.916 60.1085 530.871 59.8805 530.946 59.5956C531.022 59.3107 530.946 59.0257 530.946 58.7408C530.946 58.2089 530.946 57.6818 530.946 57.1595C530.946 44.3378 522.617 38.3401 512.367 43.9104L497.25 52.159C487.045 57.7008 478.716 72.7022 478.716 85.5809Z" fill="#E0E0E0"/>
<path d="M536.404 49.3811L524.779 43.0842L520.395 46.0047L533.955 53.7405L536.404 49.3811Z" fill="#E0E0E0"/>
<path d="M496.494 105.896L484.808 99.5566L493.969 96.978L496.494 105.896Z" fill="#E0E0E0"/>
<path d="M510.13 91.8494C510.13 94.1288 513.153 97.2345 516.615 97.8186C517.084 97.9041 516.963 98.8728 516.403 99.2432C514.34 100.299 511.96 100.671 509.646 100.297C508.143 100.255 506.679 99.8372 505.404 99.0862C504.129 98.3352 503.088 97.2782 502.39 96.0235L510.13 91.8494Z" fill="#407BFF"/>
<path d="M483.387 37.2861L463.205 48.27C449.599 55.6924 438.473 75.6942 438.473 92.8326C438.473 93.5449 438.473 94.2572 438.473 94.884C438.473 95.2687 438.473 95.5964 438.473 95.9668C438.473 96.3372 438.548 96.6221 438.594 96.9497C438.639 97.2774 438.685 97.7333 438.745 98.0895C439.018 100.106 439.525 102.089 440.257 104.002C440.574 104.728 440.907 105.426 441.27 106.039C441.436 106.365 441.628 106.679 441.844 106.979C441.908 107.083 441.978 107.183 442.056 107.278C442.384 107.817 442.769 108.323 443.205 108.788C443.447 109.045 443.688 109.33 443.945 109.558L444.716 110.27C444.988 110.47 445.261 110.712 445.533 110.911C445.807 111.114 446.095 111.3 446.394 111.467L447.301 111.951C448.452 112.537 449.699 112.936 450.99 113.134C451.088 113.102 451.194 113.102 451.292 113.134C451.64 113.134 451.973 113.134 452.305 113.134C452.673 113.155 453.041 113.155 453.409 113.134C454.38 113.138 455.349 113.037 456.296 112.834C456.863 112.728 457.423 112.595 457.974 112.436C459.737 111.921 461.431 111.219 463.024 110.341C462.949 114.561 461.503 118.658 458.881 122.08C458.398 122.693 459.138 123.22 459.698 122.949C462.172 121.74 464.362 120.073 466.138 118.049C469.548 114.24 471.938 109.716 473.107 104.856L471.595 105.64L483.13 99.3716C484.246 98.7654 485.322 98.0946 486.35 97.3629C486.261 97.0013 486.196 96.635 486.153 96.2659C486.153 96.0237 486.063 95.6676 486.032 95.2972C485.977 94.9812 485.942 94.6625 485.927 94.3427V94.1717C485.912 93.9345 485.912 93.6966 485.927 93.4594C485.927 92.918 485.927 92.3482 485.927 91.7783C485.927 77.361 494.997 61.106 506.668 54.7379L507.953 54.0255C507.832 37.5425 496.841 29.9635 483.387 37.2861Z" fill="#F0F0F0"/>
<path d="M524.128 50.2216L509.011 58.4559C498.776 64.0405 490.432 79.0419 490.432 91.9206C490.432 92.4477 490.432 92.9605 490.432 93.4592C490.432 93.9578 490.432 93.9863 490.432 94.257C490.432 94.5276 490.432 94.7556 490.507 95.012C490.532 95.294 490.572 95.5746 490.628 95.8526C490.794 97.1207 491.109 98.3677 491.565 99.5708C491.623 99.7916 491.704 100.006 491.807 100.212C491.91 100.494 492.031 100.77 492.17 101.038C492.291 101.306 492.427 101.568 492.578 101.822C492.703 102.07 492.85 102.309 493.017 102.534C493.052 102.615 493.098 102.691 493.153 102.762C493.44 103.161 493.727 103.531 494.03 103.887C494.204 104.092 494.391 104.287 494.589 104.472L495.163 104.999C495.359 105.172 495.566 105.334 495.783 105.483C495.983 105.637 496.195 105.775 496.418 105.896C496.645 106.024 496.857 106.153 497.098 106.267L497.794 106.58L498.519 106.822C498.962 106.948 499.411 107.053 499.865 107.136H500.092C500.343 107.157 500.596 107.157 500.848 107.136C501.123 107.172 501.403 107.172 501.679 107.136C502.328 107.139 502.977 107.082 503.614 106.965C504.124 106.882 504.629 106.773 505.126 106.637C506.455 106.259 507.729 105.728 508.92 105.056L514.03 102.292C514.739 103.533 515.783 104.576 517.058 105.314C518.332 106.052 519.791 106.459 521.286 106.495C523.602 106.862 525.982 106.486 528.044 105.426C528.588 105.098 528.724 104.13 528.24 104.001C524.778 103.417 521.77 100.312 521.77 98.0322L524.068 96.7786C525.414 96.0417 526.685 95.188 527.862 94.2285C528.286 93.8866 528.709 93.5161 529.117 93.1457C529.884 92.4769 530.611 91.7683 531.294 91.023C531.566 90.7239 531.838 90.4389 532.111 90.097C532.383 89.7551 532.609 89.5272 532.866 89.228L533.093 88.9431C534.1 87.6888 535.029 86.3807 535.875 85.0253L536.555 83.9284C536.782 83.558 536.993 83.1876 537.205 82.8029C537.417 82.4183 537.598 82.0336 537.81 81.6632L538.399 80.495C538.596 80.0961 538.762 79.6972 538.944 79.3268C539.261 78.643 539.563 77.9022 539.82 77.2468L539.956 76.8622C540.123 76.4633 540.274 76.0644 540.395 75.6655C540.682 74.882 540.909 74.1269 541.166 73.3291C541.698 71.4567 542.097 69.553 542.36 67.6306C542.36 67.3029 542.436 66.9895 542.466 66.6618C542.496 66.3342 542.466 66.092 542.542 65.8213C542.617 65.5506 542.542 65.2514 542.542 64.9665C542.542 64.4394 542.542 63.898 542.542 63.3709C542.708 50.592 534.363 44.6512 524.128 50.2216Z" fill="#F0F0F0"/>
<path d="M402.675 238.672C396.96 236.991 391.095 241.35 387.255 250.155C383.415 258.959 375.357 281.354 374.163 287.323C372.969 293.292 399.999 306.285 399.243 305.943C398.487 305.601 402.675 238.672 402.675 238.672Z" fill="#263238"/>
<path d="M390.112 445.899C389.296 446.184 389.099 447.637 388.978 450.515C388.888 452.695 388.389 456.498 391.095 457.253C393.801 458.009 397.777 457.624 399.515 455.572C401.677 453.008 403.143 450.757 406.227 447.623C408.918 444.916 411.806 442.38 412.894 438.577C413.877 435.129 413.06 433.647 410.566 432.65C407.149 431.225 401.768 435.756 399.092 436.468C396.779 437.081 390.913 445.614 390.112 445.899Z" fill="#263238"/>
<path d="M390.112 443.235V446.768C391.519 447.616 393.146 448.087 394.816 448.13C396.486 448.173 398.137 447.785 399.591 447.01C399.757 446.668 400.573 441.953 400.573 441.953L390.112 443.235Z" fill="#FFA8A7"/>
<path d="M420.483 466.271C420.483 466.271 419.41 469.349 418.835 471.97C418.367 474.107 417.717 477.668 418.503 479.292C419.289 480.917 422.403 481.942 427.195 481.9C430.309 481.9 435.162 483.88 438.473 485.618C441.784 487.356 449.055 488.139 452.668 487.741C456.931 487.27 461.361 484.891 462.056 483.267C462.751 481.643 461.829 479.862 451.761 475.816C451.67 475.816 437.762 471.543 432.879 466.457L420.483 466.271Z" fill="#263238"/>
<path d="M420.483 462.453C420.483 462.453 420.483 465.075 420.483 466.571C420.483 468.067 422.358 470.303 427.225 470.147C430.642 470.033 433.015 469.163 432.879 466.514V462.681L420.483 462.453Z" fill="#FFA8A7"/>
<path d="M387.663 396.322C388.499 390.06 389.982 383.891 392.092 377.901C392.092 377.901 390.762 362.017 390.112 346.958C389.417 330.689 390.112 310.231 389.825 306.185C389.825 306.185 445.533 295.558 446.53 314.363C447.528 333.168 444.323 381.035 443.673 389.298C443.023 397.561 441.496 404.87 439.682 418.261C437.868 431.653 432.879 462.681 432.879 462.681C430.953 463.607 428.813 464.07 426.651 464.03C424.489 463.99 422.37 463.449 420.483 462.453C420.483 462.453 416.568 424.843 416.976 415.312C417.294 408.233 418.585 401.222 420.816 394.456L418.835 365.464C417.898 351.973 416.915 345.519 416.689 339.636L415.494 339.066C415.494 339.066 414.27 362.344 413.62 370.607C412.97 378.87 411.564 386.791 409.085 402.134C406.877 415.44 400.331 443.605 400.331 443.605C393.967 446.854 390.173 443.192 390.173 443.192C390.173 443.192 385.97 407.861 387.663 396.322Z" fill="#455A64"/>
<path d="M416.689 339.679C416.689 339.679 403.174 333.396 396.416 327.74C396.416 327.74 402.69 336.074 410.944 339.778C410.944 339.778 413.877 368.684 413.862 368.114L415.555 339.622L416.689 339.679Z" fill="#37474F"/>
<path d="M428.722 232.717L425.426 249.813L409.039 248.687L412.471 229.298L428.722 232.717Z" fill="#FFA8A7"/>
<path d="M391.73 247.433C393.347 242.789 399.606 237.732 405.864 238.886C415.173 240.37 424.346 242.527 433.303 245.339C439.032 247.262 444.248 251.935 444.731 269.715L447.634 322.654L440.695 324.079L438.276 312.083L437.158 324.079C429.901 325.788 417.308 324.378 409.039 322.654C391.805 319.107 389.734 312.368 389.734 312.368C389.734 312.368 389.507 282.579 390.021 269.715C390.505 258.716 390.611 250.568 391.73 247.433Z" fill="#37474F"/>
<path d="M440.846 212.459C440.846 212.459 444.822 218.001 444.308 218.585C443.389 219.168 442.364 219.588 441.285 219.824L440.846 212.459Z" fill="#FFA8A7"/>
<path d="M428.722 194.907C432.547 196.731 439.153 200.093 440.967 213.271C442.842 226.805 440.378 231.164 438.443 232.959C437.127 234.17 429.992 234.241 426.424 233.23C421.889 231.962 411.881 228.358 407.286 221.405C401.873 213.228 400.664 202.272 406.772 197.913C415.343 191.787 425.487 193.369 428.722 194.907Z" fill="#FFA8A7"/>
<path d="M441.768 199.438C440.514 202.686 438.397 210.635 429.599 213.955C429.599 213.955 428.344 208.883 423.824 209.424C419.304 209.966 418.533 215.394 421.314 218.77C424.096 222.146 426.787 220.921 426.787 220.921C426.787 220.921 427.392 228.187 422.252 231.478C422.252 231.478 416.038 235.182 409.462 232.332C406.439 231.05 402.312 224.369 399.863 218.884C394.662 207.287 393.922 197.985 401.768 195.05C402.735 189.779 405.26 187.798 410.324 186.815C421.224 184.693 429.463 191.446 438.624 190.263C443.416 189.636 443.205 195.734 441.768 199.438Z" fill="#37474F"/>
<path d="M401.586 196.816L396.446 193.825C396.645 193.489 396.915 193.195 397.238 192.96C397.561 192.725 397.931 192.554 398.326 192.457C398.721 192.361 399.133 192.341 399.536 192.398C399.94 192.455 400.327 192.589 400.674 192.791C401.021 192.993 401.321 193.26 401.556 193.574C401.791 193.888 401.957 194.244 402.042 194.62C402.127 194.996 402.131 195.385 402.052 195.762C401.974 196.14 401.815 196.498 401.586 196.816Z" fill="#37474F"/>
<path d="M427.513 238.943L429.387 244.057C429.387 244.057 428.012 246.337 422.161 246.451C416.311 246.564 410.067 244.812 408.132 242.462C407.692 242.001 407.365 241.454 407.177 240.861C406.989 240.267 406.943 239.641 407.044 239.028C407.044 239.028 409.372 234.184 411.579 234.398L411.216 236.507C411.216 236.507 411.715 238.23 417.021 239.555C425.275 241.621 427.513 238.943 427.513 238.943Z" fill="#455A64"/>
<path d="M474.528 272.934C476.886 270.384 477.793 264.728 480.938 260.853C484.082 256.978 485.246 254.143 486.486 255.839C488.134 258.075 484.415 262.563 485.246 262.962C486.078 263.361 489.147 269.316 489.464 272.592C489.782 275.869 480.56 284.132 480.56 284.132L474.528 272.934Z" fill="#FFA8A7"/>
<path d="M427.513 238.943C427.893 238.935 428.268 239.026 428.598 239.204C428.929 239.382 429.201 239.641 429.387 239.954C430.312 241.527 431.14 243.149 431.866 244.812L429.387 244.057L427.513 238.943Z" fill="#455A64"/>
<path d="M484.989 262.506C484.989 262.506 496.131 261.594 497.749 262.506C499.366 263.418 498.882 267.962 497.749 270.755C496.615 273.547 490.931 275.356 485.655 278.718C485.655 278.205 484.989 262.506 484.989 262.506Z" fill="#FFA8A7"/>
<path d="M431.867 244.869C436.659 246.45 440.846 248.26 445.321 256.181C451.066 266.353 461.95 282.622 461.95 282.622L474.483 272.208C474.483 272.208 476.372 270.484 479.895 275.969C480.927 277.445 481.58 279.128 481.803 280.883C482.026 282.639 481.813 284.419 481.18 286.084C481.18 286.084 466.712 302.082 463.946 304.519C461.179 306.955 456.599 305.06 453.621 301.228C450.642 297.395 431.821 275.242 431.821 275.242C431.821 275.242 421.602 262.449 431.867 244.869Z" fill="#37474F"/>
<path d="M561.136 218.271H525.444C524.097 218.271 522.805 217.767 521.852 216.869C520.899 215.971 520.364 214.754 520.364 213.484V160.046C520.364 155.841 522.137 151.808 525.292 148.834C528.448 145.861 532.727 144.19 537.19 144.19H549.435C553.89 144.202 558.158 145.877 561.303 148.849C564.449 151.822 566.216 155.848 566.216 160.046V213.484C566.216 214.754 565.68 215.971 564.728 216.869C563.775 217.767 562.483 218.271 561.136 218.271Z" fill="#37474F"/>
<path d="M519.427 200.036C515.965 209.652 510.16 237.319 510.16 237.319C510.16 237.319 498.066 251.251 494.12 254.628C491.958 256.508 487.091 259.885 487.091 259.885L495.934 266.011C503.919 260.223 511.419 253.864 518.369 246.992C519.914 245.442 520.999 243.535 521.513 241.464L527.56 217.018C527.56 217.018 527.56 197.358 530.75 194.779C533.94 192.2 534.862 191.659 534.862 191.659C530.765 191.374 522.148 192.471 519.427 200.036Z" fill="#F28F8F"/>
<path d="M536.752 191.374C531.113 190.762 523.887 190.876 520.364 196.816C516.842 202.757 510.976 233.472 510.976 233.472C510.976 233.472 516.524 237.532 522.511 237.461L536.752 191.374Z" fill="#407BFF"/>
<path d="M521.075 219.995C522.09 224.574 522.481 229.256 522.239 233.928C521.8 240.082 517.295 250.824 517.295 250.824C517.295 250.824 520.818 254.471 530.75 253.004C538.838 251.821 535.981 228.785 531.339 224.369C528.633 221.733 524.962 220.169 521.075 219.995Z" fill="#407BFF"/>
<path opacity="0.3" d="M521.075 219.995C522.09 224.574 522.481 229.256 522.239 233.928C521.8 240.082 517.295 250.824 517.295 250.824C517.295 250.824 520.818 254.471 530.75 253.004C538.838 251.821 535.981 228.785 531.339 224.369C528.633 221.733 524.962 220.169 521.075 219.995Z" fill="black"/>
<path d="M539.76 382.688C539.824 383.739 539.544 384.783 538.959 385.68C537.463 388.008 535.705 390.177 533.713 392.148C530.916 394.997 526.729 398.345 523.72 400.809C522.057 402.234 521.997 404.257 524.385 404.984C528.838 406.005 533.536 405.389 537.523 403.26C540.546 401.75 544.749 394.712 547.228 393.715C550.085 392.504 551.672 391.905 552.64 390.666C553.372 389.961 553.828 389.044 553.935 388.063C554.042 387.083 553.794 386.097 553.23 385.267C551.884 382.902 549.858 379.269 549.027 379.682L549.284 380.423C548.634 382.346 543.071 384.583 540.213 384.056L539.76 382.688Z" fill="#37474F"/>
<path d="M568.891 302.31C570.176 289.489 573.865 268.86 570.086 253.588L519.896 256.095C518.505 271.154 516.872 318.167 518.626 323.552C520.651 329.906 538.747 373.884 539.79 382.731C539.862 383.769 539.581 384.802 538.989 385.68C537.495 388.014 535.736 390.187 533.743 392.162C532.383 393.587 530.72 395.011 528.966 396.436C528.819 396.639 528.731 396.875 528.709 397.12C528.709 398.544 532.519 398.986 534.756 398.373C537.546 397.445 539.95 395.704 541.619 393.401C542.904 391.792 545.792 388.7 547.666 386.378C548.292 385.661 548.825 384.877 549.254 384.042C549.754 382.998 549.84 381.82 549.496 380.722L549.375 380.366C548.394 377.482 547.785 374.497 547.561 371.476C546.865 361.775 545.096 339.365 543.464 333.396C542.33 329.046 540.608 324.852 538.339 320.916L544.068 278.904C544.068 278.904 544.673 315.944 546.457 325.389C547.863 332.954 548.407 342.414 550.055 355.392C551.567 367.815 553.32 389.697 553.32 389.697C553.365 389.705 553.411 389.705 553.456 389.697V400.154H562.844V394.085C562.844 391.345 563.087 388.61 563.57 385.908C565.082 377.645 568.226 358.74 568.876 352.343C569.904 342.2 566.019 329.45 566.019 329.45C566.019 329.45 567.637 314.819 568.891 302.31Z" fill="#FFA8A7"/>
<path d="M551.204 191.816C551.204 191.816 564.704 193.241 566.321 193.967C553.653 202.358 563.918 221.035 563.918 221.035L559.065 235.381C564.462 241.892 569.118 245.767 572.006 252.904C575.21 260.882 578.053 272.749 577.297 297.068C565.203 305.616 528.407 304.69 514.075 297.068C514.075 297.068 516.494 275.599 519.351 258.916C521.241 247.904 525.701 235.908 524.945 231.848C519.261 215.379 518.898 212.416 519.926 208.741C522.753 198.398 533.94 191.403 536.691 191.403L551.204 191.816Z" fill="#407BFF"/>
<path opacity="0.6" d="M551.204 191.816C551.204 191.816 564.704 193.241 566.321 193.967C553.653 202.358 563.918 221.035 563.918 221.035L559.065 235.381C564.462 241.892 569.118 245.767 572.006 252.904C575.21 260.882 578.053 272.749 577.297 297.068C565.203 305.616 528.407 304.69 514.075 297.068C514.075 297.068 516.494 275.599 519.351 258.916C521.241 247.904 525.701 235.908 524.945 231.848C519.261 215.379 518.898 212.416 519.926 208.741C522.753 198.398 533.94 191.403 536.691 191.403L551.204 191.816Z" fill="white"/>
<path d="M553.366 395.724V394.456C552.186 398.716 549.828 402.604 546.533 405.725C543.509 408.303 539.427 411.295 538.369 414.187C537.311 417.079 543.222 418.375 547.122 418.005C550.902 417.569 554.384 415.853 556.918 413.175C559.398 410.497 559.352 408.673 560.501 407.192C561.65 405.71 564.326 404.086 564.946 402.377C565.139 400.781 564.953 399.166 564.401 397.647C563.963 396.065 563.479 394.313 562.89 394.456V395.439C561.529 396.447 559.843 396.985 558.113 396.963C556.797 396.992 553.351 396.721 553.366 395.724Z" fill="#37474F"/>
<path d="M562.844 395.41C561.484 396.419 559.798 396.957 558.067 396.934C556.676 396.934 553.29 396.721 553.305 395.724V394.456C552.126 398.716 549.768 402.604 546.472 405.724L544.189 407.648C542.587 409.329 543.04 410.796 546.805 411.095C550.569 411.394 553.88 409.257 556.722 405.967C559.145 402.657 561.197 399.119 562.844 395.41Z" fill="#FFA8A7"/>
<path d="M527.893 152.923C525.474 154.277 522.481 160.046 522.768 172.042C523.025 182.242 526.532 184.764 528.301 185.49C530.07 186.217 533.456 185.775 536.752 185.262V191.374C536.752 191.374 532.216 196.375 532.473 199.181C532.73 201.988 539.065 202.643 543.343 199.908C546.432 197.65 549.09 194.914 551.204 191.816L551.128 177.755C551.128 177.755 553.078 179.521 556.374 176.814C559.095 174.578 560.002 170.788 557.886 168.765C557.336 168.278 556.671 167.922 555.946 167.727C555.221 167.531 554.456 167.502 553.717 167.641C552.977 167.781 552.284 168.085 551.694 168.528C551.104 168.971 550.636 169.541 550.327 170.19C550.327 170.19 548.498 165.389 540.894 163.067C534.03 160.915 530.296 158.479 527.893 152.923Z" fill="#FFA8A7"/>
<path d="M534.862 169.492C534.862 169.743 534.941 169.988 535.088 170.198C535.235 170.407 535.444 170.571 535.689 170.67C535.934 170.768 536.204 170.797 536.466 170.752C536.729 170.707 536.971 170.59 537.163 170.416C537.356 170.243 537.49 170.02 537.549 169.775C537.608 169.53 537.59 169.274 537.496 169.039C537.402 168.804 537.237 168.6 537.022 168.453C536.806 168.305 536.549 168.221 536.283 168.209C536.1 168.206 535.919 168.236 535.748 168.298C535.578 168.361 535.422 168.454 535.291 168.573C535.159 168.692 535.053 168.835 534.979 168.992C534.906 169.15 534.866 169.319 534.862 169.492Z" fill="#37474F"/>
<path d="M534.499 178.125L531.34 179.08C531.395 179.278 531.493 179.464 531.626 179.627C531.76 179.789 531.928 179.924 532.118 180.024C532.309 180.124 532.519 180.186 532.736 180.207C532.953 180.229 533.172 180.209 533.38 180.148C533.807 180.011 534.161 179.724 534.37 179.348C534.578 178.971 534.624 178.533 534.499 178.125Z" fill="#F28F8F"/>
<path d="M523.705 165.546L526.457 163.751C526.34 163.575 526.187 163.424 526.007 163.306C525.827 163.188 525.623 163.106 525.408 163.065C525.193 163.024 524.972 163.024 524.757 163.066C524.542 163.108 524.339 163.191 524.159 163.309C523.79 163.554 523.537 163.924 523.452 164.341C523.368 164.758 523.458 165.19 523.705 165.546Z" fill="#37474F"/>
<path d="M538.823 166.514L536.056 164.719C536.173 164.545 536.325 164.394 536.505 164.275C536.685 164.157 536.888 164.075 537.102 164.032C537.317 163.989 537.538 163.988 537.753 164.028C537.968 164.068 538.173 164.148 538.354 164.263C538.72 164.513 538.972 164.884 539.059 165.302C539.146 165.72 539.062 166.153 538.823 166.514Z" fill="#37474F"/>
<path d="M524.34 168.551C524.337 168.803 524.413 169.05 524.559 169.261C524.704 169.473 524.912 169.639 525.156 169.74C525.401 169.84 525.672 169.871 525.935 169.827C526.198 169.784 526.442 169.669 526.636 169.495C526.83 169.322 526.966 169.099 527.026 168.854C527.086 168.609 527.069 168.352 526.976 168.117C526.882 167.881 526.717 167.676 526.501 167.528C526.285 167.38 526.028 167.295 525.761 167.284C525.395 167.276 525.04 167.405 524.774 167.642C524.508 167.88 524.352 168.206 524.34 168.551Z" fill="#37474F"/>
<path d="M530.75 167.825L530.538 175.546L526.23 174.293L530.75 167.825Z" fill="#F28F8F"/>
<path d="M536.752 185.263C540.229 184.821 547.334 182.883 548.513 180.219C548.064 181.569 547.189 182.757 546.003 183.624C543.857 185.348 536.752 187.3 536.752 187.3V185.263Z" fill="#F28F8F"/>
<path d="M561.408 227.56L551.869 239.726L559.065 235.381L561.408 227.56Z" fill="#407BFF"/>
<path d="M486.259 259.885C484.218 262.363 482.964 267.179 481.89 268.803C480.817 270.427 479.532 271.837 481.89 272.136C484.249 272.436 487.695 268.09 488.98 265.455C489.631 263.968 490.858 262.771 492.412 262.107C491.308 261.751 491.883 257.577 491.112 256.993C491.112 256.993 487.091 258.545 486.259 259.885Z" fill="#F28F8F"/>
<path d="M485.655 278.69C487.786 277.194 487.862 275.356 488.27 272.436C488.678 269.515 497.219 266.353 497.492 268.532C497.764 270.712 498.535 272.536 495.98 275.185C493.425 277.835 489.555 280.656 485.655 278.69Z" fill="#F28F8F"/>
<path d="M551.204 191.816C551.204 191.816 563.842 192.856 566.321 193.967C568.801 195.078 572.928 201.802 569.239 211.561C565.55 221.32 562.194 232.802 562.572 235.11C562.95 237.418 571.764 249.357 571.764 249.357C569.332 251.048 566.583 252.29 563.661 253.018L559.125 243.729L560.184 253.602C555.628 254.646 550.948 255.125 546.26 255.027C546.26 255.027 541.982 217.103 551.204 191.816Z" fill="#407BFF"/>
<path d="M582.346 238.33C583.359 232.717 582.346 230.879 580.26 225.38L569.677 231.834C570.545 233.91 571.056 236.103 571.189 238.33C571.099 239.954 568.755 256.053 566.563 261.666C566.168 262.664 565.392 263.487 564.386 263.974C562.207 265.228 560.231 266.773 558.521 268.561C556.903 269.986 555.603 270.242 555.769 270.726C556.019 271.251 556.466 271.671 557.024 271.905C557.582 272.139 558.212 272.171 558.793 271.994C560.11 271.591 561.373 271.046 562.557 270.37C561.507 272.465 560.109 274.389 558.415 276.069C554.53 279.972 554.182 282.508 561.438 283.035C565.974 283.363 569.768 280.969 573.865 271.781C575.135 268.412 576.18 264.972 576.994 261.48C579.201 253.517 581.348 243.986 582.346 238.33Z" fill="#FFA8A7"/>
<path d="M566.321 193.967C571.416 196.118 572.867 200.364 574.757 206.603C576.647 212.843 582.573 231.563 582.573 231.563C582.573 231.563 577.493 237.262 570.479 235.666L561.408 214.909C561.408 214.909 557.175 201.361 566.321 193.967Z" fill="#407BFF"/>
</svg>
